<svg xmlns="http://www.w3.org/2000/svg" xmlns:xlink="http://www.w3.org/1999/xlink" width="176" zoomAndPan="magnify" viewBox="0 0 132 30.000001" height="40" preserveAspectRatio="xMidYMid meet" version="1.0"><defs><g/><clipPath id="ca01dd31d2"><path d="M 5.03125 10 L 23 10 L 23 27.15625 L 5.03125 27.15625 Z M 5.03125 10 " clip-rule="nonzero"/></clipPath><clipPath id="4610659fe3"><path d="M 13 1.753906 L 30.433594 1.753906 L 30.433594 17 L 13 17 Z M 13 1.753906 " clip-rule="nonzero"/></clipPath></defs><g clip-path="url(#ca01dd31d2)"><path fill="#007bc2" d="M 21.398438 21.355469 C 21.03125 20.988281 20.6875 20.59375 20.382812 20.175781 L 20.382812 22.609375 C 20.382812 22.695312 20.382812 22.78125 20.375 22.863281 C 20.371094 22.941406 20.359375 23.03125 20.34375 23.117188 C 20.328125 23.203125 20.3125 23.285156 20.285156 23.363281 C 20.261719 23.445312 20.234375 23.527344 20.203125 23.605469 C 20.171875 23.6875 20.136719 23.765625 20.09375 23.839844 C 20.058594 23.914062 20.015625 23.992188 19.964844 24.0625 C 19.917969 24.132812 19.867188 24.203125 19.8125 24.265625 C 19.761719 24.332031 19.707031 24.394531 19.640625 24.457031 C 19.582031 24.515625 19.515625 24.574219 19.453125 24.628906 C 19.386719 24.683594 19.316406 24.738281 19.246094 24.785156 C 19.175781 24.832031 19.101562 24.878906 19.023438 24.921875 C 18.949219 24.964844 18.875 24.996094 18.792969 25.035156 C 18.710938 25.066406 18.636719 25.097656 18.550781 25.121094 C 18.46875 25.148438 18.386719 25.167969 18.300781 25.183594 C 18.214844 25.203125 18.132812 25.210938 18.046875 25.222656 C 17.960938 25.234375 17.875 25.234375 17.792969 25.234375 C 17.707031 25.234375 17.621094 25.226562 17.539062 25.222656 C 17.453125 25.210938 17.371094 25.203125 17.285156 25.183594 C 17.199219 25.167969 17.117188 25.148438 17.035156 25.121094 C 16.957031 25.09375 16.875 25.066406 16.792969 25.035156 C 16.710938 25 16.636719 24.964844 16.5625 24.921875 C 16.484375 24.878906 16.414062 24.832031 16.339844 24.785156 C 16.269531 24.738281 16.199219 24.6875 16.132812 24.628906 C 16.070312 24.574219 16.003906 24.515625 15.945312 24.457031 C 15.886719 24.394531 15.828125 24.332031 15.773438 24.265625 C 15.71875 24.203125 15.671875 24.132812 15.621094 24.0625 C 15.574219 23.992188 15.53125 23.914062 15.492188 23.839844 C 15.453125 23.765625 15.417969 23.6875 15.382812 23.605469 C 15.351562 23.527344 15.324219 23.445312 15.300781 23.363281 C 15.28125 23.285156 15.257812 23.195312 15.242188 23.117188 C 15.226562 23.03125 15.214844 22.949219 15.210938 22.863281 C 15.207031 22.777344 15.199219 22.6875 15.207031 22.609375 L 15.207031 17.015625 L 9.628906 17.015625 C 9.496094 17.015625 9.359375 17.003906 9.226562 16.984375 C 9.089844 16.960938 8.960938 16.929688 8.832031 16.886719 C 8.699219 16.84375 8.578125 16.792969 8.457031 16.730469 C 8.339844 16.671875 8.21875 16.59375 8.113281 16.519531 C 8.003906 16.4375 7.902344 16.351562 7.804688 16.253906 C 7.707031 16.15625 7.621094 16.054688 7.539062 15.945312 C 7.457031 15.839844 7.386719 15.71875 7.328125 15.601562 C 7.269531 15.480469 7.214844 15.351562 7.171875 15.226562 C 7.128906 15.097656 7.101562 14.96875 7.078125 14.832031 C 7.058594 14.699219 7.046875 14.5625 7.046875 14.429688 C 7.046875 14.292969 7.058594 14.15625 7.078125 14.023438 C 7.101562 13.886719 7.132812 13.757812 7.175781 13.628906 C 7.21875 13.5 7.273438 13.375 7.332031 13.257812 C 7.394531 13.136719 7.46875 13.019531 7.542969 12.910156 C 7.625 12.800781 7.710938 12.699219 7.808594 12.601562 C 7.90625 12.503906 8.007812 12.417969 8.117188 12.34375 L 8.3125 12.203125 C 8.058594 11.992188 7.824219 11.765625 7.609375 11.515625 C 7.378906 11.257812 7.167969 10.980469 6.964844 10.695312 L 6.871094 10.765625 C 6.773438 10.835938 6.679688 10.910156 6.59375 10.992188 C 6.5 11.074219 6.414062 11.15625 6.335938 11.242188 C 6.253906 11.328125 6.171875 11.414062 6.097656 11.503906 C 6.019531 11.597656 5.945312 11.6875 5.878906 11.792969 C 5.808594 11.890625 5.746094 11.992188 5.6875 12.09375 C 5.625 12.195312 5.566406 12.300781 5.511719 12.40625 C 5.460938 12.515625 5.410156 12.625 5.367188 12.730469 C 5.324219 12.839844 5.28125 12.953125 5.25 13.066406 C 5.210938 13.179688 5.183594 13.292969 5.15625 13.414062 C 5.128906 13.53125 5.109375 13.644531 5.089844 13.765625 C 5.074219 13.882812 5.058594 14 5.054688 14.121094 C 5.046875 14.246094 5.046875 14.363281 5.046875 14.480469 C 5.046875 14.601562 5.054688 14.71875 5.066406 14.839844 C 5.074219 14.957031 5.089844 15.078125 5.109375 15.195312 C 5.128906 15.3125 5.152344 15.429688 5.179688 15.546875 C 5.207031 15.660156 5.242188 15.777344 5.273438 15.890625 C 5.3125 16.007812 5.355469 16.121094 5.398438 16.226562 C 5.449219 16.335938 5.496094 16.445312 5.550781 16.550781 C 5.605469 16.660156 5.664062 16.761719 5.730469 16.863281 C 5.792969 16.96875 5.859375 17.066406 5.929688 17.160156 C 6 17.257812 6.074219 17.351562 6.152344 17.441406 C 6.226562 17.535156 6.3125 17.621094 6.394531 17.703125 C 6.480469 17.789062 6.566406 17.863281 6.660156 17.945312 C 6.75 18.019531 6.84375 18.097656 6.9375 18.167969 C 7.035156 18.238281 7.132812 18.300781 7.238281 18.367188 C 7.339844 18.433594 7.441406 18.484375 7.550781 18.539062 C 7.65625 18.59375 7.765625 18.640625 7.875 18.691406 C 7.980469 18.734375 8.09375 18.777344 8.210938 18.816406 C 8.324219 18.851562 8.4375 18.886719 8.554688 18.914062 C 8.667969 18.941406 8.785156 18.960938 8.90625 18.984375 C 9.023438 19 9.144531 19.015625 9.261719 19.027344 C 9.382812 19.035156 9.5 19.042969 9.617188 19.042969 L 13.199219 19.042969 L 13.199219 22.617188 C 13.199219 22.695312 13.199219 22.769531 13.199219 22.84375 C 13.199219 22.921875 13.207031 22.996094 13.210938 23.074219 C 13.21875 23.148438 13.226562 23.222656 13.238281 23.300781 C 13.25 23.375 13.261719 23.449219 13.277344 23.527344 C 13.292969 23.601562 13.304688 23.675781 13.324219 23.746094 C 13.339844 23.824219 13.363281 23.894531 13.382812 23.96875 C 13.40625 24.039062 13.429688 24.117188 13.453125 24.183594 C 13.480469 24.253906 13.503906 24.324219 13.535156 24.394531 C 13.5625 24.464844 13.59375 24.535156 13.628906 24.605469 C 13.660156 24.675781 13.691406 24.742188 13.726562 24.8125 C 13.761719 24.878906 13.796875 24.945312 13.832031 25.011719 C 13.871094 25.078125 13.910156 25.140625 13.953125 25.207031 C 13.996094 25.269531 14.039062 25.332031 14.082031 25.394531 C 14.125 25.457031 14.171875 25.515625 14.222656 25.574219 C 14.269531 25.632812 14.320312 25.691406 14.367188 25.746094 C 14.417969 25.800781 14.46875 25.859375 14.523438 25.914062 C 14.578125 25.96875 14.632812 26.023438 14.6875 26.070312 C 14.742188 26.121094 14.800781 26.171875 14.859375 26.222656 C 14.917969 26.269531 14.976562 26.320312 15.039062 26.363281 C 15.097656 26.40625 15.164062 26.453125 15.222656 26.492188 C 15.285156 26.535156 15.347656 26.574219 15.410156 26.617188 C 15.476562 26.65625 15.539062 26.691406 15.609375 26.730469 C 15.675781 26.769531 15.746094 26.800781 15.816406 26.832031 C 15.886719 26.863281 15.949219 26.898438 16.019531 26.925781 C 16.089844 26.953125 16.160156 26.984375 16.230469 27.003906 C 16.300781 27.03125 16.378906 27.054688 16.449219 27.074219 C 16.519531 27.097656 16.59375 27.117188 16.667969 27.136719 C 16.746094 27.152344 16.816406 27.171875 16.890625 27.183594 C 16.964844 27.195312 17.042969 27.210938 17.113281 27.222656 C 17.1875 27.234375 17.265625 27.242188 17.339844 27.25 C 17.414062 27.253906 17.492188 27.257812 17.566406 27.265625 C 17.640625 27.269531 17.71875 27.269531 17.792969 27.269531 C 17.867188 27.269531 17.945312 27.269531 18.019531 27.265625 C 18.097656 27.257812 18.171875 27.253906 18.246094 27.25 C 18.324219 27.242188 18.398438 27.234375 18.472656 27.222656 C 18.550781 27.210938 18.625 27.199219 18.695312 27.183594 C 18.765625 27.167969 18.839844 27.152344 18.917969 27.136719 C 18.992188 27.117188 19.0625 27.097656 19.136719 27.074219 C 19.207031 27.054688 19.285156 27.027344 19.355469 27.003906 C 19.425781 26.980469 19.496094 26.953125 19.566406 26.925781 C 19.636719 26.898438 19.707031 26.863281 19.769531 26.832031 C 19.839844 26.800781 19.90625 26.769531 19.976562 26.730469 C 20.039062 26.691406 20.109375 26.65625 20.175781 26.617188 C 20.242188 26.578125 20.304688 26.535156 20.363281 26.492188 C 20.429688 26.449219 20.488281 26.40625 20.546875 26.363281 C 20.609375 26.320312 20.667969 26.269531 20.726562 26.222656 C 20.785156 26.171875 20.839844 26.125 20.898438 26.070312 C 20.953125 26.023438 21.007812 25.96875 21.0625 25.914062 C 21.117188 25.859375 21.164062 25.804688 21.21875 25.746094 C 21.265625 25.691406 21.316406 25.632812 21.363281 25.574219 C 21.414062 25.515625 21.457031 25.457031 21.503906 25.394531 C 21.546875 25.335938 21.589844 25.269531 21.632812 25.207031 C 21.679688 25.140625 21.714844 25.078125 21.753906 25.011719 C 21.792969 24.945312 21.828125 24.882812 21.863281 24.8125 C 21.894531 24.746094 21.933594 24.675781 21.957031 24.605469 C 21.992188 24.535156 22.019531 24.464844 22.050781 24.394531 C 22.078125 24.324219 22.105469 24.253906 22.132812 24.183594 C 22.160156 24.117188 22.179688 24.039062 22.203125 23.96875 C 22.222656 23.898438 22.246094 23.824219 22.261719 23.746094 C 22.277344 23.671875 22.292969 23.601562 22.308594 23.527344 C 22.324219 23.449219 22.335938 23.375 22.347656 23.300781 C 22.359375 23.222656 22.363281 23.148438 22.375 23.074219 C 22.378906 22.996094 22.386719 22.921875 22.386719 22.84375 C 22.386719 22.769531 22.390625 22.695312 22.386719 22.617188 L 22.386719 22.207031 C 22.035156 21.9375 21.699219 21.664062 21.398438 21.355469 Z M 21.398438 21.355469 " fill-opacity="1" fill-rule="nonzero"/></g><g clip-path="url(#4610659fe3)"><path fill="#48cfae" d="M 13.644531 10.734375 C 13.492188 11.089844 13.28125 11.410156 13.011719 11.683594 L 13.078125 11.835938 L 13.078125 11.851562 L 15.214844 11.851562 L 15.214844 6.269531 C 15.214844 6.1875 15.222656 6.101562 15.234375 6.023438 C 15.242188 5.941406 15.253906 5.855469 15.277344 5.773438 C 15.292969 5.691406 15.3125 5.609375 15.339844 5.53125 C 15.367188 5.449219 15.394531 5.375 15.425781 5.296875 C 15.460938 5.222656 15.496094 5.148438 15.535156 5.070312 C 15.574219 4.996094 15.621094 4.925781 15.664062 4.859375 C 15.714844 4.789062 15.761719 4.726562 15.816406 4.660156 C 15.871094 4.59375 15.925781 4.535156 15.984375 4.476562 C 16.042969 4.417969 16.109375 4.363281 16.171875 4.308594 C 16.238281 4.253906 16.300781 4.207031 16.371094 4.164062 C 16.441406 4.121094 16.511719 4.078125 16.589844 4.039062 C 16.664062 4 16.738281 3.964844 16.816406 3.929688 C 16.890625 3.898438 16.972656 3.871094 17.054688 3.851562 C 17.132812 3.828125 17.214844 3.808594 17.296875 3.789062 C 17.378906 3.773438 17.457031 3.761719 17.542969 3.753906 C 17.625 3.742188 17.710938 3.742188 17.792969 3.742188 C 17.875 3.742188 17.960938 3.746094 18.042969 3.753906 C 18.121094 3.757812 18.210938 3.773438 18.289062 3.789062 C 18.371094 3.808594 18.453125 3.828125 18.535156 3.851562 C 18.613281 3.871094 18.691406 3.902344 18.769531 3.929688 C 18.847656 3.964844 18.921875 3.996094 19 4.039062 C 19.074219 4.078125 19.144531 4.121094 19.214844 4.164062 C 19.285156 4.207031 19.347656 4.261719 19.414062 4.308594 C 19.480469 4.363281 19.542969 4.417969 19.601562 4.476562 C 19.664062 4.535156 19.722656 4.59375 19.769531 4.660156 C 19.824219 4.726562 19.875 4.789062 19.921875 4.859375 C 19.96875 4.929688 20.015625 5 20.050781 5.070312 C 20.089844 5.140625 20.128906 5.21875 20.160156 5.296875 C 20.191406 5.375 20.222656 5.453125 20.246094 5.53125 C 20.273438 5.609375 20.292969 5.691406 20.3125 5.773438 C 20.328125 5.855469 20.34375 5.933594 20.355469 6.023438 C 20.363281 6.101562 20.371094 6.1875 20.371094 6.269531 L 20.371094 11.855469 L 21.332031 11.855469 C 21.488281 11.78125 21.65625 11.722656 21.824219 11.683594 C 21.996094 11.644531 22.167969 11.625 22.34375 11.625 C 22.515625 11.625 22.6875 11.644531 22.859375 11.683594 C 23.035156 11.722656 23.195312 11.78125 23.351562 11.855469 L 25.953125 11.855469 C 26.039062 11.855469 26.117188 11.863281 26.207031 11.867188 C 26.292969 11.878906 26.371094 11.890625 26.453125 11.90625 C 26.535156 11.921875 26.617188 11.941406 26.695312 11.964844 C 26.777344 11.992188 26.859375 12.019531 26.933594 12.050781 C 27.011719 12.082031 27.089844 12.121094 27.160156 12.160156 C 27.238281 12.195312 27.308594 12.242188 27.378906 12.289062 C 27.449219 12.335938 27.519531 12.386719 27.582031 12.441406 C 27.648438 12.496094 27.710938 12.546875 27.773438 12.609375 C 27.832031 12.667969 27.890625 12.730469 27.9375 12.796875 C 27.992188 12.863281 28.042969 12.933594 28.089844 13.003906 C 28.140625 13.070312 28.183594 13.140625 28.21875 13.21875 C 28.257812 13.292969 28.296875 13.371094 28.328125 13.445312 C 28.359375 13.519531 28.386719 13.601562 28.414062 13.683594 C 28.441406 13.765625 28.457031 13.84375 28.472656 13.925781 C 28.492188 14.007812 28.5 14.09375 28.511719 14.175781 C 28.523438 14.261719 28.523438 14.34375 28.523438 14.429688 C 28.523438 14.585938 28.507812 14.742188 28.480469 14.894531 C 29.210938 15.039062 29.820312 15.324219 30.175781 15.960938 C 30.199219 15.996094 30.207031 16.03125 30.230469 16.070312 L 30.300781 15.867188 C 30.328125 15.777344 30.355469 15.691406 30.375 15.605469 C 30.398438 15.519531 30.417969 15.433594 30.433594 15.339844 C 30.453125 15.253906 30.46875 15.164062 30.484375 15.078125 C 30.5 14.988281 30.503906 14.898438 30.515625 14.804688 C 30.523438 14.714844 30.527344 14.628906 30.53125 14.535156 C 30.53125 14.445312 30.53125 14.359375 30.53125 14.265625 C 30.527344 14.175781 30.523438 14.089844 30.515625 13.996094 C 30.511719 13.902344 30.496094 13.816406 30.484375 13.726562 C 30.46875 13.632812 30.453125 13.546875 30.433594 13.460938 C 30.414062 13.375 30.390625 13.28125 30.371094 13.195312 C 30.347656 13.109375 30.320312 13.023438 30.289062 12.9375 C 30.261719 12.851562 30.230469 12.769531 30.191406 12.683594 C 30.160156 12.601562 30.121094 12.515625 30.085938 12.433594 C 30.046875 12.355469 30.003906 12.273438 29.960938 12.195312 C 29.917969 12.121094 29.867188 12.039062 29.820312 11.964844 C 29.769531 11.890625 29.722656 11.8125 29.667969 11.742188 C 29.613281 11.667969 29.558594 11.597656 29.5 11.527344 C 29.441406 11.457031 29.382812 11.386719 29.324219 11.320312 C 29.261719 11.257812 29.199219 11.191406 29.132812 11.128906 C 29.070312 11.0625 29.003906 11.003906 28.933594 10.945312 C 28.863281 10.882812 28.792969 10.832031 28.722656 10.777344 C 28.652344 10.722656 28.578125 10.667969 28.5 10.621094 C 28.425781 10.570312 28.351562 10.523438 28.273438 10.472656 C 28.199219 10.429688 28.117188 10.382812 28.035156 10.34375 C 27.957031 10.300781 27.875 10.261719 27.792969 10.226562 C 27.710938 10.1875 27.625 10.15625 27.539062 10.121094 C 27.453125 10.089844 27.371094 10.0625 27.285156 10.035156 C 27.199219 10.007812 27.113281 9.988281 27.027344 9.964844 C 26.941406 9.945312 26.847656 9.929688 26.761719 9.910156 C 26.675781 9.894531 26.582031 9.882812 26.492188 9.875 C 26.398438 9.863281 26.3125 9.859375 26.222656 9.851562 C 26.128906 9.847656 26.042969 9.839844 25.953125 9.847656 L 22.375 9.847656 L 22.375 6.269531 C 22.375 6.117188 22.363281 5.972656 22.347656 5.828125 C 22.332031 5.679688 22.304688 5.535156 22.277344 5.390625 C 22.246094 5.242188 22.207031 5.101562 22.164062 4.957031 C 22.121094 4.816406 22.066406 4.675781 22.007812 4.542969 C 21.949219 4.40625 21.882812 4.269531 21.8125 4.140625 C 21.742188 4.011719 21.660156 3.882812 21.582031 3.761719 C 21.492188 3.640625 21.40625 3.519531 21.308594 3.40625 C 21.214844 3.292969 21.117188 3.183594 21.007812 3.078125 C 20.898438 2.976562 20.792969 2.871094 20.671875 2.78125 C 20.558594 2.6875 20.433594 2.597656 20.3125 2.515625 C 20.1875 2.433594 20.058594 2.359375 19.925781 2.289062 C 19.796875 2.21875 19.664062 2.160156 19.523438 2.097656 C 19.386719 2.046875 19.246094 1.992188 19.101562 1.953125 C 18.960938 1.910156 18.8125 1.871094 18.667969 1.84375 C 18.523438 1.820312 18.375 1.796875 18.226562 1.78125 C 18.097656 1.757812 17.949219 1.753906 17.796875 1.753906 C 17.648438 1.753906 17.5 1.757812 17.355469 1.773438 C 17.210938 1.792969 17.058594 1.8125 16.914062 1.839844 C 16.765625 1.867188 16.621094 1.90625 16.480469 1.949219 C 16.339844 1.992188 16.199219 2.039062 16.058594 2.09375 C 15.925781 2.148438 15.789062 2.214844 15.652344 2.285156 C 15.523438 2.351562 15.394531 2.429688 15.269531 2.511719 C 15.144531 2.589844 15.027344 2.675781 14.910156 2.773438 C 14.792969 2.867188 14.679688 2.96875 14.574219 3.070312 C 14.464844 3.175781 14.367188 3.289062 14.269531 3.402344 C 14.171875 3.515625 14.085938 3.632812 14 3.757812 C 13.914062 3.882812 13.839844 4.007812 13.769531 4.136719 C 13.699219 4.265625 13.632812 4.402344 13.574219 4.535156 C 13.515625 4.671875 13.464844 4.8125 13.417969 4.953125 C 13.375 5.09375 13.335938 5.238281 13.304688 5.382812 C 13.269531 5.53125 13.25 5.675781 13.234375 5.820312 C 13.21875 5.96875 13.207031 6.117188 13.207031 6.265625 L 13.207031 6.351562 C 13.753906 7.667969 14.058594 9.726562 13.644531 10.734375 Z M 13.644531 10.734375 " fill-opacity="1" fill-rule="nonzero"/></g><path fill="#007bc2" d="M 6.5 8.382812 C 6.589844 9.042969 7.261719 10.226562 8.0625 11.128906 C 8.394531 11.5 8.882812 11.976562 9.347656 12.148438 C 9.558594 12.21875 9.769531 12.265625 9.992188 12.289062 C 10.214844 12.308594 10.429688 12.304688 10.652344 12.273438 L 10.882812 12.800781 C 10.898438 12.839844 10.921875 12.878906 10.949219 12.910156 C 10.976562 12.941406 11.003906 12.976562 11.039062 13.003906 C 11.074219 13.027344 11.109375 13.050781 11.148438 13.066406 C 11.1875 13.082031 11.230469 13.09375 11.273438 13.105469 L 11.292969 13.179688 L 11.535156 13.070312 C 11.558594 13.140625 11.585938 13.203125 11.613281 13.261719 C 11.773438 13.628906 11.992188 13.96875 12.253906 14.265625 C 12.488281 14.519531 12.746094 14.746094 13.035156 14.9375 C 13.320312 15.125 13.628906 15.277344 13.957031 15.390625 C 14.902344 15.730469 15.695312 15.617188 16.398438 15.515625 C 17.597656 15.339844 18.394531 15.226562 19.484375 17.53125 C 20.109375 18.859375 20.941406 20.0625 21.816406 20.933594 C 22.859375 21.964844 23.964844 22.515625 25.015625 22.542969 C 26.578125 22.574219 27.945312 21.5 29.089844 19.351562 C 29.867188 17.886719 30.058594 16.902344 29.695312 16.261719 C 29.246094 15.460938 28.140625 15.402344 26.851562 15.324219 C 25.875 15.269531 24.769531 15.207031 23.894531 14.796875 C 23.910156 14.761719 23.925781 14.730469 23.941406 14.703125 C 23.957031 14.671875 23.96875 14.640625 23.984375 14.605469 C 23.996094 14.574219 24.011719 14.542969 24.023438 14.507812 C 24.035156 14.476562 24.042969 14.445312 24.054688 14.40625 C 24.066406 14.375 24.070312 14.335938 24.082031 14.304688 C 24.085938 14.273438 24.09375 14.234375 24.097656 14.203125 C 24.105469 14.164062 24.109375 14.132812 24.109375 14.09375 C 24.113281 14.054688 24.113281 14.023438 24.113281 13.984375 C 24.113281 13.949219 24.113281 13.914062 24.113281 13.878906 C 24.113281 13.839844 24.109375 13.808594 24.109375 13.769531 C 24.105469 13.730469 24.097656 13.699219 24.09375 13.667969 C 24.085938 13.632812 24.082031 13.597656 24.070312 13.5625 C 24.066406 13.53125 24.054688 13.492188 24.042969 13.460938 C 24.035156 13.429688 24.023438 13.394531 24.011719 13.359375 C 24 13.328125 23.984375 13.292969 23.972656 13.261719 C 23.957031 13.230469 23.945312 13.195312 23.929688 13.164062 C 23.914062 13.132812 23.898438 13.097656 23.882812 13.070312 C 23.867188 13.039062 23.84375 13.011719 23.828125 12.980469 C 23.804688 12.953125 23.789062 12.921875 23.769531 12.894531 C 23.746094 12.867188 23.726562 12.839844 23.703125 12.8125 C 23.683594 12.785156 23.65625 12.757812 23.632812 12.738281 C 23.605469 12.710938 23.585938 12.6875 23.558594 12.660156 C 23.53125 12.640625 23.503906 12.613281 23.476562 12.589844 C 23.449219 12.570312 23.421875 12.546875 23.390625 12.527344 C 23.363281 12.503906 23.332031 12.488281 23.304688 12.46875 C 23.273438 12.449219 23.246094 12.429688 23.210938 12.414062 C 23.179688 12.398438 23.148438 12.378906 23.113281 12.363281 C 23.082031 12.347656 23.050781 12.335938 23.019531 12.320312 C 22.984375 12.308594 22.953125 12.292969 22.921875 12.285156 C 22.886719 12.273438 22.851562 12.261719 22.816406 12.257812 C 22.785156 12.246094 22.746094 12.242188 22.714844 12.234375 C 22.683594 12.230469 22.644531 12.222656 22.613281 12.21875 C 22.578125 12.214844 22.542969 12.207031 22.503906 12.207031 C 22.464844 12.207031 22.433594 12.203125 22.394531 12.203125 C 22.359375 12.203125 22.324219 12.203125 22.289062 12.203125 C 22.25 12.203125 22.21875 12.207031 22.179688 12.214844 C 22.140625 12.21875 22.109375 12.222656 22.078125 12.230469 C 22.046875 12.234375 22.007812 12.242188 21.976562 12.25 C 21.941406 12.261719 21.90625 12.265625 21.871094 12.277344 C 21.839844 12.289062 21.808594 12.300781 21.769531 12.308594 C 21.738281 12.320312 21.703125 12.335938 21.671875 12.347656 C 21.640625 12.363281 21.609375 12.375 21.574219 12.390625 C 21.542969 12.40625 21.511719 12.425781 21.484375 12.445312 C 21.457031 12.46875 21.425781 12.484375 21.390625 12.503906 C 21.363281 12.527344 21.332031 12.546875 21.304688 12.570312 C 21.277344 12.589844 21.25 12.613281 21.222656 12.632812 C 21.195312 12.65625 21.171875 12.683594 21.148438 12.703125 C 21.121094 12.730469 21.101562 12.753906 21.078125 12.78125 C 21.054688 12.808594 21.03125 12.835938 21.007812 12.863281 C 20.984375 12.886719 20.964844 12.914062 20.941406 12.949219 C 20.921875 12.976562 20.90625 13.007812 20.882812 13.035156 C 20.867188 13.066406 20.847656 13.09375 20.828125 13.125 C 20.8125 13.160156 20.796875 13.191406 20.78125 13.222656 C 20.765625 13.257812 20.753906 13.289062 20.738281 13.320312 C 20.726562 13.351562 20.714844 13.386719 20.707031 13.421875 C 20.695312 13.457031 20.683594 13.488281 20.679688 13.527344 C 20.667969 13.558594 20.660156 13.597656 20.65625 13.628906 C 20.652344 13.660156 20.644531 13.699219 20.640625 13.730469 C 20.636719 13.769531 20.636719 13.800781 20.628906 13.839844 C 20.628906 13.878906 20.625 13.910156 20.625 13.949219 C 20.625 13.984375 20.625 14.019531 20.628906 14.054688 C 20.628906 14.09375 20.636719 14.125 20.640625 14.164062 C 20.644531 14.203125 20.652344 14.234375 20.65625 14.265625 C 20.660156 14.296875 20.671875 14.335938 20.679688 14.367188 C 20.683594 14.402344 20.695312 14.4375 20.707031 14.472656 C 20.714844 14.503906 20.726562 14.535156 20.738281 14.574219 C 20.75 14.605469 20.765625 14.640625 20.78125 14.671875 C 20.796875 14.703125 20.8125 14.734375 20.828125 14.769531 C 20.847656 14.800781 20.863281 14.828125 20.882812 14.859375 C 20.898438 14.894531 20.921875 14.921875 20.941406 14.945312 C 20.964844 14.972656 20.984375 15.007812 21.007812 15.035156 C 21.03125 15.058594 21.050781 15.085938 21.078125 15.113281 C 21.101562 15.140625 21.125 15.167969 21.152344 15.191406 C 21.179688 15.21875 21.203125 15.238281 21.230469 15.261719 C 21.257812 15.28125 21.285156 15.304688 21.308594 15.324219 C 21.335938 15.347656 21.363281 15.367188 21.398438 15.390625 C 21.425781 15.410156 21.457031 15.429688 21.488281 15.449219 C 21.519531 15.464844 21.546875 15.488281 21.582031 15.503906 C 21.613281 15.519531 21.644531 15.535156 21.679688 15.546875 C 21.710938 15.5625 21.742188 15.574219 21.773438 15.585938 C 21.808594 15.59375 21.839844 15.605469 21.878906 15.617188 C 21.910156 15.628906 21.949219 15.636719 21.980469 15.644531 C 22.011719 15.65625 22.050781 15.660156 22.082031 15.664062 C 22.117188 15.671875 22.152344 15.675781 22.1875 15.683594 C 22.222656 15.6875 22.253906 15.6875 22.292969 15.691406 C 22.332031 15.691406 22.363281 15.691406 22.402344 15.691406 C 22.441406 15.691406 22.472656 15.691406 22.511719 15.6875 C 22.546875 15.6875 22.578125 15.683594 22.617188 15.675781 C 22.648438 15.671875 22.6875 15.664062 22.71875 15.660156 C 22.753906 15.65625 22.789062 15.644531 22.824219 15.636719 C 22.855469 15.628906 22.894531 15.621094 22.925781 15.613281 C 22.957031 15.601562 22.992188 15.589844 23.023438 15.574219 C 23.054688 15.5625 23.085938 15.546875 23.121094 15.53125 C 23.152344 15.515625 23.183594 15.496094 23.21875 15.480469 C 23.25 15.464844 23.277344 15.449219 23.308594 15.429688 C 23.339844 15.410156 23.367188 15.390625 23.394531 15.367188 C 24.453125 15.929688 25.714844 16 26.832031 16.066406 C 27.851562 16.125 28.816406 16.179688 29.0625 16.617188 C 29.214844 16.882812 29.230469 17.507812 28.449219 18.988281 C 27.449219 20.875 26.300781 21.820312 25.054688 21.785156 C 23.042969 21.742188 21.175781 19.289062 20.1875 17.207031 C 18.859375 14.40625 17.566406 14.589844 16.316406 14.769531 C 15.675781 14.859375 15.011719 14.957031 14.238281 14.683594 C 13.023438 14.246094 12.484375 13.417969 12.246094 12.765625 L 12.296875 12.742188 C 12.332031 12.730469 12.359375 12.710938 12.386719 12.695312 C 12.414062 12.679688 12.4375 12.652344 12.460938 12.628906 C 12.484375 12.609375 12.503906 12.582031 12.527344 12.546875 C 12.542969 12.519531 12.558594 12.488281 12.570312 12.457031 C 12.578125 12.425781 12.589844 12.390625 12.597656 12.359375 C 12.601562 12.328125 12.605469 12.292969 12.605469 12.257812 C 12.605469 12.222656 12.601562 12.191406 12.597656 12.160156 C 12.589844 12.125 12.578125 12.09375 12.5625 12.0625 L 12.332031 11.53125 C 12.503906 11.390625 12.65625 11.234375 12.789062 11.0625 C 12.925781 10.890625 13.039062 10.695312 13.125 10.496094 C 13.570312 9.425781 12.996094 6.691406 12.296875 5.847656 C 11.980469 5.472656 11.5 5.253906 10.894531 5.21875 C 10.855469 5.148438 10.808594 5.082031 10.75 5.023438 C 10.6875 4.964844 10.628906 4.914062 10.558594 4.871094 C 10.488281 4.828125 10.414062 4.796875 10.332031 4.773438 C 10.25 4.753906 10.171875 4.742188 10.089844 4.742188 C 10.050781 4.742188 10.011719 4.742188 9.976562 4.746094 C 9.9375 4.753906 9.898438 4.757812 9.867188 4.769531 C 9.828125 4.777344 9.796875 4.789062 9.757812 4.800781 C 9.726562 4.8125 9.6875 4.828125 9.65625 4.847656 C 9.625 4.867188 9.59375 4.886719 9.558594 4.910156 C 9.527344 4.929688 9.5 4.953125 9.472656 4.980469 C 9.445312 5.007812 9.417969 5.03125 9.398438 5.058594 C 9.375 5.085938 9.347656 5.121094 9.332031 5.152344 C 9.3125 5.183594 9.296875 5.21875 9.277344 5.25 C 9.261719 5.28125 9.246094 5.320312 9.234375 5.351562 C 9.226562 5.390625 9.214844 5.421875 9.203125 5.460938 C 9.199219 5.496094 9.191406 5.535156 9.1875 5.574219 C 9.179688 5.609375 9.179688 5.648438 9.1875 5.6875 C 9.1875 5.726562 9.191406 5.761719 9.199219 5.800781 C 9.203125 5.839844 9.214844 5.875 9.226562 5.910156 C 9.234375 5.945312 9.246094 5.980469 9.261719 6.011719 C 9.300781 6.09375 9.34375 6.167969 9.402344 6.238281 C 9.460938 6.308594 9.527344 6.363281 9.601562 6.410156 C 9.679688 6.460938 9.757812 6.496094 9.847656 6.519531 C 9.933594 6.539062 10.019531 6.558594 10.109375 6.550781 C 10.203125 6.550781 10.289062 6.535156 10.375 6.507812 C 10.460938 6.480469 10.542969 6.4375 10.613281 6.390625 C 10.6875 6.335938 10.753906 6.277344 10.808594 6.207031 C 10.863281 6.136719 10.90625 6.054688 10.9375 5.972656 C 11.277344 6.003906 11.53125 6.117188 11.699219 6.308594 L 11.714844 6.328125 C 11.964844 6.625 12.234375 7.394531 12.394531 8.230469 C 12.550781 9.070312 12.570312 9.875 12.429688 10.207031 C 12.175781 10.824219 11.476562 11.234375 11.261719 11.355469 C 11.023438 11.433594 10.25 11.667969 9.628906 11.433594 C 9.289062 11.3125 8.71875 10.761719 8.203125 10.0625 C 7.691406 9.367188 7.316406 8.660156 7.269531 8.269531 C 7.238281 8.011719 7.324219 7.738281 7.539062 7.453125 C 7.570312 7.46875 7.609375 7.480469 7.648438 7.484375 C 7.683594 7.496094 7.71875 7.503906 7.753906 7.507812 C 7.792969 7.511719 7.832031 7.511719 7.867188 7.519531 C 7.90625 7.519531 7.945312 7.519531 7.980469 7.511719 C 8.019531 7.507812 8.058594 7.503906 8.089844 7.492188 C 8.128906 7.480469 8.160156 7.46875 8.199219 7.457031 C 8.230469 7.449219 8.269531 7.433594 8.300781 7.414062 C 8.332031 7.398438 8.367188 7.378906 8.398438 7.355469 C 8.429688 7.335938 8.457031 7.3125 8.484375 7.285156 C 8.511719 7.257812 8.539062 7.238281 8.566406 7.203125 C 8.59375 7.179688 8.613281 7.144531 8.636719 7.117188 C 8.65625 7.085938 8.671875 7.054688 8.695312 7.019531 C 8.710938 6.988281 8.726562 6.957031 8.738281 6.917969 C 8.75 6.886719 8.761719 6.847656 8.769531 6.8125 C 8.78125 6.773438 8.785156 6.742188 8.785156 6.703125 C 8.792969 6.664062 8.792969 6.625 8.792969 6.589844 C 8.792969 6.550781 8.785156 6.511719 8.78125 6.476562 C 8.777344 6.4375 8.769531 6.398438 8.761719 6.367188 C 8.75 6.328125 8.738281 6.296875 8.722656 6.257812 C 8.707031 6.226562 8.691406 6.1875 8.671875 6.15625 C 8.65625 6.125 8.636719 6.09375 8.613281 6.066406 C 8.59375 6.03125 8.570312 6.003906 8.542969 5.980469 C 8.515625 5.953125 8.488281 5.925781 8.464844 5.902344 C 8.4375 5.882812 8.402344 5.859375 8.371094 5.839844 C 8.339844 5.816406 8.304688 5.800781 8.273438 5.785156 C 8.242188 5.769531 8.203125 5.75 8.171875 5.742188 C 8.132812 5.730469 8.101562 5.71875 8.0625 5.714844 C 8.023438 5.707031 7.988281 5.703125 7.957031 5.699219 C 7.917969 5.691406 7.878906 5.691406 7.839844 5.699219 C 7.804688 5.699219 7.765625 5.703125 7.726562 5.707031 C 7.691406 5.714844 7.652344 5.726562 7.621094 5.734375 C 7.582031 5.746094 7.550781 5.757812 7.515625 5.773438 C 7.464844 5.792969 7.414062 5.820312 7.367188 5.855469 C 7.316406 5.886719 7.273438 5.925781 7.238281 5.960938 C 7.191406 6.003906 7.160156 6.050781 7.128906 6.09375 C 7.097656 6.136719 7.070312 6.1875 7.046875 6.242188 C 7.027344 6.296875 7.003906 6.351562 6.992188 6.40625 C 6.984375 6.460938 6.972656 6.519531 6.972656 6.574219 C 6.972656 6.632812 6.972656 6.6875 6.984375 6.746094 C 6.992188 6.800781 7.003906 6.859375 7.027344 6.914062 C 6.605469 7.394531 6.4375 7.898438 6.5 8.382812 Z M 6.5 8.382812 " fill-opacity="1" fill-rule="nonzero"/><g fill="#007bc2" fill-opacity="1"><g transform="translate(36.572785, 20.226883)"><g><path d="M 8.234375 -6.625 L 8.234375 -10.625 L 10.328125 -10.625 L 10.328125 0 L 8.234375 0 L 8.234375 -4.84375 L 3.484375 -4.84375 L 3.484375 0 L 1.375 0 L 1.375 -10.625 L 3.484375 -10.625 L 3.484375 -6.625 Z M 8.234375 -6.625 "/></g></g></g><g fill="#007bc2" fill-opacity="1"><g transform="translate(48.293196, 20.226883)"><g><path d="M 7.921875 -3.546875 L 2.765625 -3.546875 C 2.828125 -2.847656 3.023438 -2.335938 3.359375 -2.015625 C 3.703125 -1.703125 4.164062 -1.546875 4.75 -1.546875 C 5.207031 -1.546875 5.578125 -1.628906 5.859375 -1.796875 C 6.148438 -1.972656 6.382812 -2.238281 6.5625 -2.59375 L 6.71875 -2.59375 L 8.046875 -1.734375 C 7.785156 -1.171875 7.390625 -0.710938 6.859375 -0.359375 C 6.335938 -0.015625 5.632812 0.15625 4.75 0.15625 C 3.925781 0.15625 3.210938 0 2.609375 -0.3125 C 2.003906 -0.632812 1.535156 -1.101562 1.203125 -1.71875 C 0.878906 -2.34375 0.71875 -3.101562 0.71875 -4 C 0.71875 -4.914062 0.890625 -5.679688 1.234375 -6.296875 C 1.578125 -6.921875 2.039062 -7.382812 2.625 -7.6875 C 3.21875 -8 3.878906 -8.15625 4.609375 -8.15625 C 5.734375 -8.15625 6.597656 -7.851562 7.203125 -7.25 C 7.804688 -6.65625 8.109375 -5.78125 8.109375 -4.625 C 8.109375 -4.195312 8.09375 -3.867188 8.0625 -3.640625 Z M 6.1875 -4.859375 C 6.164062 -5.460938 6.023438 -5.90625 5.765625 -6.1875 C 5.503906 -6.46875 5.117188 -6.609375 4.609375 -6.609375 C 3.585938 -6.609375 2.988281 -6.023438 2.8125 -4.859375 Z M 6.1875 -4.859375 "/></g></g></g><g fill="#007bc2" fill-opacity="1"><g transform="translate(57.005393, 20.226883)"><g><path d="M 3.125 0.15625 C 2.613281 0.15625 2.164062 0.0625 1.78125 -0.125 C 1.40625 -0.3125 1.113281 -0.585938 0.90625 -0.953125 C 0.707031 -1.328125 0.609375 -1.769531 0.609375 -2.28125 C 0.609375 -2.757812 0.707031 -3.15625 0.90625 -3.46875 C 1.113281 -3.789062 1.429688 -4.054688 1.859375 -4.265625 C 2.285156 -4.472656 2.84375 -4.632812 3.53125 -4.75 C 4.007812 -4.820312 4.375 -4.90625 4.625 -5 C 4.875 -5.09375 5.039062 -5.195312 5.125 -5.3125 C 5.21875 -5.425781 5.265625 -5.570312 5.265625 -5.75 C 5.265625 -6.007812 5.171875 -6.207031 4.984375 -6.34375 C 4.804688 -6.476562 4.507812 -6.546875 4.09375 -6.546875 C 3.644531 -6.546875 3.21875 -6.445312 2.8125 -6.25 C 2.414062 -6.050781 2.070312 -5.789062 1.78125 -5.46875 L 1.640625 -5.46875 L 0.796875 -6.734375 C 1.203125 -7.179688 1.695312 -7.53125 2.28125 -7.78125 C 2.863281 -8.03125 3.503906 -8.15625 4.203125 -8.15625 C 5.253906 -8.15625 6.019531 -7.929688 6.5 -7.484375 C 6.976562 -7.035156 7.21875 -6.398438 7.21875 -5.578125 L 7.21875 -2.09375 C 7.21875 -1.726562 7.375 -1.546875 7.6875 -1.546875 C 7.800781 -1.546875 7.921875 -1.570312 8.046875 -1.625 L 8.140625 -1.59375 L 8.28125 -0.1875 C 8.175781 -0.113281 8.023438 -0.0507812 7.828125 0 C 7.628906 0.0390625 7.410156 0.0625 7.171875 0.0625 C 6.691406 0.0625 6.316406 -0.03125 6.046875 -0.21875 C 5.773438 -0.40625 5.582031 -0.691406 5.46875 -1.078125 L 5.3125 -1.09375 C 4.925781 -0.257812 4.195312 0.15625 3.125 0.15625 Z M 3.765625 -1.34375 C 4.222656 -1.34375 4.59375 -1.5 4.875 -1.8125 C 5.15625 -2.125 5.296875 -2.5625 5.296875 -3.125 L 5.296875 -3.9375 L 5.15625 -3.96875 C 5.03125 -3.875 4.867188 -3.789062 4.671875 -3.71875 C 4.484375 -3.65625 4.203125 -3.59375 3.828125 -3.53125 C 3.398438 -3.457031 3.085938 -3.332031 2.890625 -3.15625 C 2.703125 -2.976562 2.609375 -2.726562 2.609375 -2.40625 C 2.609375 -2.0625 2.707031 -1.796875 2.90625 -1.609375 C 3.113281 -1.429688 3.398438 -1.34375 3.765625 -1.34375 Z M 3.765625 -1.34375 "/></g></g></g><g fill="#007bc2" fill-opacity="1"><g transform="translate(65.456006, 20.226883)"><g><path d="M 3.328125 0.15625 C 2.609375 0.15625 2.054688 -0.0351562 1.671875 -0.421875 C 1.296875 -0.816406 1.109375 -1.410156 1.109375 -2.203125 L 1.109375 -11.234375 L 3.109375 -11.234375 L 3.109375 -2.28125 C 3.109375 -1.789062 3.3125 -1.546875 3.71875 -1.546875 C 3.84375 -1.546875 3.96875 -1.566406 4.09375 -1.609375 L 4.203125 -1.578125 L 4.375 -0.03125 C 4.269531 0.0195312 4.125 0.0625 3.9375 0.09375 C 3.75 0.132812 3.546875 0.15625 3.328125 0.15625 Z M 3.328125 0.15625 "/></g></g></g><g fill="#007bc2" fill-opacity="1"><g transform="translate(70.062788, 20.226883)"><g><path d="M 5.53125 -1.90625 L 6.046875 -0.421875 C 5.828125 -0.242188 5.550781 -0.101562 5.21875 0 C 4.894531 0.101562 4.523438 0.15625 4.109375 0.15625 C 3.242188 0.15625 2.582031 -0.078125 2.125 -0.546875 C 1.675781 -1.023438 1.453125 -1.710938 1.453125 -2.609375 L 1.453125 -6.421875 L 0.234375 -6.421875 L 0.234375 -8.015625 L 1.453125 -8.015625 L 1.453125 -9.578125 L 3.46875 -9.90625 L 3.46875 -8.015625 L 5.75 -8.015625 L 5.75 -6.421875 L 3.46875 -6.421875 L 3.46875 -2.765625 C 3.46875 -2.367188 3.550781 -2.078125 3.71875 -1.890625 C 3.882812 -1.710938 4.125 -1.625 4.4375 -1.625 C 4.789062 -1.625 5.101562 -1.71875 5.375 -1.90625 Z M 5.53125 -1.90625 "/></g></g></g><g fill="#007bc2" fill-opacity="1"><g transform="translate(76.289938, 20.226883)"><g><path d="M 1.15625 0 L 1.15625 -11.234375 L 3.171875 -11.234375 L 3.171875 -6.96875 L 3.3125 -6.9375 C 3.582031 -7.332031 3.910156 -7.632812 4.296875 -7.84375 C 4.679688 -8.050781 5.148438 -8.15625 5.703125 -8.15625 C 7.472656 -8.15625 8.359375 -7.15625 8.359375 -5.15625 L 8.359375 0 L 6.34375 0 L 6.34375 -4.90625 C 6.34375 -5.445312 6.234375 -5.84375 6.015625 -6.09375 C 5.796875 -6.34375 5.457031 -6.46875 5 -6.46875 C 4.4375 -6.46875 3.988281 -6.28125 3.65625 -5.90625 C 3.332031 -5.53125 3.171875 -4.941406 3.171875 -4.140625 L 3.171875 0 Z M 1.15625 0 "/></g></g></g><g fill="#007bc2" fill-opacity="1"><g transform="translate(85.677891, 20.226883)"><g/></g></g><g fill="#53c2a1" fill-opacity="1"><g transform="translate(89.190388, 20.226883)"><g><path d="M 5.796875 0.15625 C 4.828125 0.15625 3.96875 -0.046875 3.21875 -0.453125 C 2.46875 -0.859375 1.878906 -1.46875 1.453125 -2.28125 C 1.035156 -3.101562 0.828125 -4.113281 0.828125 -5.3125 C 0.828125 -6.507812 1.035156 -7.515625 1.453125 -8.328125 C 1.878906 -9.140625 2.46875 -9.75 3.21875 -10.15625 C 3.96875 -10.5625 4.828125 -10.765625 5.796875 -10.765625 C 6.816406 -10.765625 7.6875 -10.566406 8.40625 -10.171875 C 9.125 -9.773438 9.632812 -9.164062 9.9375 -8.34375 L 8.40625 -7.40625 L 8.21875 -7.421875 C 7.988281 -7.972656 7.679688 -8.367188 7.296875 -8.609375 C 6.910156 -8.847656 6.410156 -8.96875 5.796875 -8.96875 C 4.921875 -8.96875 4.234375 -8.675781 3.734375 -8.09375 C 3.242188 -7.507812 3 -6.582031 3 -5.3125 C 3 -4.039062 3.242188 -3.113281 3.734375 -2.53125 C 4.234375 -1.945312 4.921875 -1.65625 5.796875 -1.65625 C 7.179688 -1.65625 8.03125 -2.328125 8.34375 -3.671875 L 8.515625 -3.671875 L 10.0625 -2.875 C 9.769531 -1.863281 9.273438 -1.101562 8.578125 -0.59375 C 7.878906 -0.09375 6.953125 0.15625 5.796875 0.15625 Z M 5.796875 0.15625 "/></g></g></g><g fill="#53c2a1" fill-opacity="1"><g transform="translate(99.610144, 20.226883)"><g><path d="M 3.125 0.15625 C 2.613281 0.15625 2.164062 0.0625 1.78125 -0.125 C 1.40625 -0.3125 1.113281 -0.585938 0.90625 -0.953125 C 0.707031 -1.328125 0.609375 -1.769531 0.609375 -2.28125 C 0.609375 -2.757812 0.707031 -3.15625 0.90625 -3.46875 C 1.113281 -3.789062 1.429688 -4.054688 1.859375 -4.265625 C 2.285156 -4.472656 2.84375 -4.632812 3.53125 -4.75 C 4.007812 -4.820312 4.375 -4.90625 4.625 -5 C 4.875 -5.09375 5.039062 -5.195312 5.125 -5.3125 C 5.21875 -5.425781 5.265625 -5.570312 5.265625 -5.75 C 5.265625 -6.007812 5.171875 -6.207031 4.984375 -6.34375 C 4.804688 -6.476562 4.507812 -6.546875 4.09375 -6.546875 C 3.644531 -6.546875 3.21875 -6.445312 2.8125 -6.25 C 2.414062 -6.050781 2.070312 -5.789062 1.78125 -5.46875 L 1.640625 -5.46875 L 0.796875 -6.734375 C 1.203125 -7.179688 1.695312 -7.53125 2.28125 -7.78125 C 2.863281 -8.03125 3.503906 -8.15625 4.203125 -8.15625 C 5.253906 -8.15625 6.019531 -7.929688 6.5 -7.484375 C 6.976562 -7.035156 7.21875 -6.398438 7.21875 -5.578125 L 7.21875 -2.09375 C 7.21875 -1.726562 7.375 -1.546875 7.6875 -1.546875 C 7.800781 -1.546875 7.921875 -1.570312 8.046875 -1.625 L 8.140625 -1.59375 L 8.28125 -0.1875 C 8.175781 -0.113281 8.023438 -0.0507812 7.828125 0 C 7.628906 0.0390625 7.410156 0.0625 7.171875 0.0625 C 6.691406 0.0625 6.316406 -0.03125 6.046875 -0.21875 C 5.773438 -0.40625 5.582031 -0.691406 5.46875 -1.078125 L 5.3125 -1.09375 C 4.925781 -0.257812 4.195312 0.15625 3.125 0.15625 Z M 3.765625 -1.34375 C 4.222656 -1.34375 4.59375 -1.5 4.875 -1.8125 C 5.15625 -2.125 5.296875 -2.5625 5.296875 -3.125 L 5.296875 -3.9375 L 5.15625 -3.96875 C 5.03125 -3.875 4.867188 -3.789062 4.671875 -3.71875 C 4.484375 -3.65625 4.203125 -3.59375 3.828125 -3.53125 C 3.398438 -3.457031 3.085938 -3.332031 2.890625 -3.15625 C 2.703125 -2.976562 2.609375 -2.726562 2.609375 -2.40625 C 2.609375 -2.0625 2.707031 -1.796875 2.90625 -1.609375 C 3.113281 -1.429688 3.398438 -1.34375 3.765625 -1.34375 Z M 3.765625 -1.34375 "/></g></g></g><g fill="#53c2a1" fill-opacity="1"><g transform="translate(108.060757, 20.226883)"><g><path d="M 1.15625 0 L 1.15625 -8.015625 L 3.109375 -8.015625 L 3.109375 -6.8125 L 3.265625 -6.796875 C 3.453125 -7.234375 3.703125 -7.554688 4.015625 -7.765625 C 4.335938 -7.972656 4.722656 -8.078125 5.171875 -8.078125 C 5.628906 -8.078125 5.972656 -8 6.203125 -7.84375 L 5.875 -6.109375 L 5.71875 -6.09375 C 5.582031 -6.144531 5.453125 -6.179688 5.328125 -6.203125 C 5.210938 -6.222656 5.066406 -6.234375 4.890625 -6.234375 C 4.328125 -6.234375 3.898438 -6.035156 3.609375 -5.640625 C 3.316406 -5.253906 3.171875 -4.625 3.171875 -3.75 L 3.171875 0 Z M 1.15625 0 "/></g></g></g><g fill="#53c2a1" fill-opacity="1"><g transform="translate(114.135311, 20.226883)"><g><path d="M 7.921875 -3.546875 L 2.765625 -3.546875 C 2.828125 -2.847656 3.023438 -2.335938 3.359375 -2.015625 C 3.703125 -1.703125 4.164062 -1.546875 4.75 -1.546875 C 5.207031 -1.546875 5.578125 -1.628906 5.859375 -1.796875 C 6.148438 -1.972656 6.382812 -2.238281 6.5625 -2.59375 L 6.71875 -2.59375 L 8.046875 -1.734375 C 7.785156 -1.171875 7.390625 -0.710938 6.859375 -0.359375 C 6.335938 -0.015625 5.632812 0.15625 4.75 0.15625 C 3.925781 0.15625 3.210938 0 2.609375 -0.3125 C 2.003906 -0.632812 1.535156 -1.101562 1.203125 -1.71875 C 0.878906 -2.34375 0.71875 -3.101562 0.71875 -4 C 0.71875 -4.914062 0.890625 -5.679688 1.234375 -6.296875 C 1.578125 -6.921875 2.039062 -7.382812 2.625 -7.6875 C 3.21875 -8 3.878906 -8.15625 4.609375 -8.15625 C 5.734375 -8.15625 6.597656 -7.851562 7.203125 -7.25 C 7.804688 -6.65625 8.109375 -5.78125 8.109375 -4.625 C 8.109375 -4.195312 8.09375 -3.867188 8.0625 -3.640625 Z M 6.1875 -4.859375 C 6.164062 -5.460938 6.023438 -5.90625 5.765625 -6.1875 C 5.503906 -6.46875 5.117188 -6.609375 4.609375 -6.609375 C 3.585938 -6.609375 2.988281 -6.023438 2.8125 -4.859375 Z M 6.1875 -4.859375 "/></g></g></g><g fill="#53c2a1" fill-opacity="1"><g transform="translate(122.850564, 20.226883)"><g/></g></g></svg>