<svg xmlns="http://www.w3.org/2000/svg" xmlns:xlink="http://www.w3.org/1999/xlink" width="46" zoomAndPan="magnify" viewBox="0 0 34.5 34.5" height="46" preserveAspectRatio="xMidYMid meet" version="1.0"><defs><clipPath id="877735939a"><path d="M 0.554688 12 L 23 12 L 23 33.824219 L 0.554688 33.824219 Z M 0.554688 12 " clip-rule="nonzero"/></clipPath><clipPath id="cf48415c91"><path d="M 10 0.554688 L 33.824219 0.554688 L 33.824219 20 L 10 20 Z M 10 0.554688 " clip-rule="nonzero"/></clipPath></defs><g clip-path="url(#877735939a)"><path fill="#007bc2" d="M 21.652344 25.824219 C 21.179688 25.351562 20.742188 24.84375 20.34375 24.308594 L 20.34375 27.441406 C 20.34375 27.554688 20.34375 27.664062 20.335938 27.769531 C 20.328125 27.875 20.316406 27.984375 20.292969 28.097656 C 20.273438 28.207031 20.253906 28.3125 20.21875 28.417969 C 20.191406 28.519531 20.15625 28.625 20.113281 28.730469 C 20.070312 28.835938 20.03125 28.933594 19.972656 29.03125 C 19.925781 29.128906 19.871094 29.222656 19.808594 29.316406 C 19.746094 29.40625 19.683594 29.496094 19.613281 29.578125 C 19.542969 29.664062 19.472656 29.746094 19.390625 29.824219 C 19.3125 29.898438 19.230469 29.976562 19.144531 30.046875 C 19.0625 30.117188 18.972656 30.1875 18.878906 30.25 C 18.789062 30.3125 18.691406 30.367188 18.59375 30.421875 C 18.496094 30.476562 18.398438 30.519531 18.296875 30.570312 C 18.191406 30.609375 18.09375 30.652344 17.980469 30.679688 C 17.878906 30.714844 17.773438 30.742188 17.660156 30.765625 C 17.550781 30.785156 17.445312 30.796875 17.335938 30.8125 C 17.222656 30.828125 17.113281 30.828125 17.007812 30.828125 C 16.894531 30.828125 16.785156 30.820312 16.679688 30.8125 C 16.566406 30.796875 16.464844 30.785156 16.351562 30.765625 C 16.242188 30.742188 16.136719 30.714844 16.03125 30.679688 C 15.925781 30.644531 15.824219 30.609375 15.71875 30.570312 C 15.613281 30.527344 15.515625 30.476562 15.417969 30.421875 C 15.320312 30.367188 15.230469 30.3125 15.132812 30.25 C 15.042969 30.1875 14.953125 30.125 14.867188 30.046875 C 14.785156 29.976562 14.703125 29.898438 14.625 29.824219 C 14.546875 29.746094 14.472656 29.664062 14.402344 29.578125 C 14.332031 29.496094 14.269531 29.40625 14.207031 29.316406 C 14.144531 29.222656 14.089844 29.128906 14.039062 29.03125 C 13.992188 28.933594 13.941406 28.835938 13.902344 28.730469 C 13.859375 28.625 13.824219 28.519531 13.796875 28.417969 C 13.769531 28.3125 13.738281 28.199219 13.71875 28.097656 C 13.699219 27.984375 13.683594 27.878906 13.675781 27.769531 C 13.671875 27.65625 13.664062 27.546875 13.671875 27.441406 L 13.671875 20.230469 L 6.480469 20.230469 C 6.308594 20.230469 6.132812 20.21875 5.960938 20.191406 C 5.785156 20.164062 5.617188 20.121094 5.453125 20.066406 C 5.285156 20.007812 5.125 19.945312 4.96875 19.863281 C 4.816406 19.785156 4.664062 19.6875 4.523438 19.589844 C 4.386719 19.488281 4.253906 19.375 4.128906 19.25 C 4.003906 19.125 3.890625 18.992188 3.785156 18.851562 C 3.683594 18.714844 3.589844 18.558594 3.515625 18.40625 C 3.4375 18.253906 3.367188 18.085938 3.3125 17.925781 C 3.257812 17.757812 3.222656 17.59375 3.195312 17.417969 C 3.167969 17.242188 3.152344 17.070312 3.152344 16.894531 C 3.152344 16.722656 3.167969 16.546875 3.195312 16.375 C 3.222656 16.199219 3.265625 16.03125 3.320312 15.863281 C 3.375 15.699219 3.445312 15.539062 3.523438 15.382812 C 3.597656 15.230469 3.695312 15.078125 3.792969 14.9375 C 3.898438 14.800781 4.007812 14.667969 4.132812 14.542969 C 4.261719 14.414062 4.390625 14.304688 4.53125 14.207031 L 4.78125 14.027344 C 4.457031 13.753906 4.15625 13.460938 3.878906 13.140625 C 3.578125 12.808594 3.304688 12.453125 3.046875 12.082031 L 2.921875 12.171875 C 2.796875 12.261719 2.679688 12.359375 2.566406 12.464844 C 2.449219 12.570312 2.335938 12.675781 2.234375 12.785156 C 2.128906 12.898438 2.023438 13.007812 1.925781 13.128906 C 1.828125 13.246094 1.730469 13.363281 1.648438 13.496094 C 1.558594 13.621094 1.472656 13.753906 1.398438 13.886719 C 1.320312 14.019531 1.242188 14.152344 1.175781 14.289062 C 1.105469 14.429688 1.042969 14.570312 0.984375 14.707031 C 0.929688 14.847656 0.875 14.992188 0.832031 15.140625 C 0.785156 15.285156 0.75 15.433594 0.714844 15.585938 C 0.679688 15.738281 0.652344 15.886719 0.632812 16.039062 C 0.609375 16.191406 0.589844 16.34375 0.582031 16.5 C 0.574219 16.660156 0.574219 16.8125 0.574219 16.964844 C 0.574219 17.117188 0.582031 17.273438 0.597656 17.425781 C 0.609375 17.578125 0.632812 17.730469 0.652344 17.882812 C 0.679688 18.039062 0.707031 18.183594 0.742188 18.335938 C 0.777344 18.484375 0.824219 18.636719 0.867188 18.785156 C 0.917969 18.929688 0.972656 19.074219 1.027344 19.214844 C 1.089844 19.355469 1.152344 19.492188 1.222656 19.632812 C 1.292969 19.773438 1.371094 19.90625 1.453125 20.035156 C 1.535156 20.167969 1.621094 20.292969 1.710938 20.421875 C 1.800781 20.546875 1.898438 20.664062 1.996094 20.78125 C 2.09375 20.902344 2.207031 21.011719 2.308594 21.117188 C 2.421875 21.226562 2.53125 21.324219 2.652344 21.429688 C 2.769531 21.527344 2.886719 21.625 3.011719 21.714844 C 3.140625 21.804688 3.265625 21.890625 3.394531 21.972656 C 3.527344 22.058594 3.660156 22.125 3.800781 22.195312 C 3.941406 22.265625 4.078125 22.328125 4.21875 22.390625 C 4.359375 22.445312 4.503906 22.503906 4.648438 22.550781 C 4.796875 22.601562 4.941406 22.640625 5.097656 22.675781 C 5.242188 22.710938 5.394531 22.738281 5.546875 22.765625 C 5.703125 22.789062 5.855469 22.808594 6.007812 22.824219 C 6.160156 22.835938 6.316406 22.84375 6.46875 22.84375 L 11.085938 22.84375 L 11.085938 27.457031 C 11.085938 27.554688 11.085938 27.648438 11.085938 27.746094 C 11.085938 27.84375 11.09375 27.941406 11.101562 28.039062 C 11.105469 28.136719 11.121094 28.234375 11.136719 28.332031 C 11.148438 28.429688 11.164062 28.527344 11.183594 28.625 C 11.203125 28.722656 11.21875 28.820312 11.246094 28.910156 C 11.265625 29.007812 11.296875 29.097656 11.324219 29.195312 C 11.351562 29.289062 11.378906 29.386719 11.414062 29.476562 C 11.449219 29.566406 11.476562 29.65625 11.519531 29.746094 C 11.554688 29.835938 11.59375 29.929688 11.636719 30.019531 C 11.679688 30.109375 11.71875 30.191406 11.761719 30.285156 C 11.8125 30.367188 11.851562 30.457031 11.902344 30.542969 C 11.949219 30.625 12 30.707031 12.054688 30.792969 C 12.109375 30.875 12.164062 30.953125 12.222656 31.035156 C 12.277344 31.113281 12.339844 31.1875 12.402344 31.265625 C 12.464844 31.34375 12.527344 31.417969 12.589844 31.488281 C 12.652344 31.558594 12.722656 31.632812 12.792969 31.703125 C 12.863281 31.773438 12.933594 31.84375 13 31.90625 C 13.070312 31.96875 13.148438 32.039062 13.226562 32.101562 C 13.300781 32.164062 13.378906 32.226562 13.453125 32.28125 C 13.53125 32.339844 13.613281 32.402344 13.691406 32.449219 C 13.773438 32.503906 13.851562 32.554688 13.933594 32.609375 C 14.019531 32.660156 14.101562 32.707031 14.191406 32.757812 C 14.277344 32.804688 14.367188 32.847656 14.457031 32.886719 C 14.546875 32.929688 14.632812 32.972656 14.722656 33.007812 C 14.8125 33.042969 14.902344 33.082031 14.992188 33.113281 C 15.085938 33.144531 15.183594 33.175781 15.273438 33.203125 C 15.363281 33.230469 15.460938 33.257812 15.558594 33.277344 C 15.65625 33.300781 15.746094 33.328125 15.84375 33.339844 C 15.941406 33.355469 16.039062 33.375 16.128906 33.390625 C 16.226562 33.402344 16.324219 33.417969 16.421875 33.425781 C 16.519531 33.433594 16.617188 33.4375 16.714844 33.445312 C 16.8125 33.453125 16.910156 33.453125 17.007812 33.453125 C 17.105469 33.453125 17.203125 33.453125 17.300781 33.445312 C 17.398438 33.4375 17.496094 33.433594 17.59375 33.425781 C 17.691406 33.417969 17.789062 33.402344 17.882812 33.390625 C 17.980469 33.375 18.078125 33.363281 18.171875 33.339844 C 18.261719 33.320312 18.359375 33.300781 18.457031 33.277344 C 18.554688 33.257812 18.644531 33.230469 18.742188 33.203125 C 18.832031 33.175781 18.929688 33.140625 19.019531 33.113281 C 19.109375 33.078125 19.203125 33.042969 19.292969 33.007812 C 19.382812 32.972656 19.472656 32.929688 19.554688 32.886719 C 19.648438 32.847656 19.730469 32.804688 19.820312 32.757812 C 19.90625 32.707031 19.996094 32.660156 20.078125 32.609375 C 20.164062 32.5625 20.246094 32.503906 20.324219 32.449219 C 20.40625 32.394531 20.484375 32.339844 20.558594 32.28125 C 20.636719 32.226562 20.710938 32.164062 20.789062 32.101562 C 20.867188 32.039062 20.9375 31.976562 21.011719 31.90625 C 21.082031 31.84375 21.152344 31.773438 21.222656 31.703125 C 21.289062 31.632812 21.355469 31.566406 21.421875 31.488281 C 21.484375 31.417969 21.546875 31.34375 21.609375 31.265625 C 21.675781 31.1875 21.730469 31.113281 21.792969 31.035156 C 21.847656 30.960938 21.902344 30.875 21.960938 30.792969 C 22.015625 30.707031 22.0625 30.625 22.113281 30.542969 C 22.160156 30.457031 22.210938 30.375 22.253906 30.285156 C 22.292969 30.199219 22.34375 30.109375 22.378906 30.019531 C 22.417969 29.929688 22.453125 29.835938 22.496094 29.746094 C 22.53125 29.65625 22.566406 29.566406 22.601562 29.476562 C 22.636719 29.386719 22.664062 29.289062 22.691406 29.195312 C 22.71875 29.105469 22.746094 29.007812 22.765625 28.910156 C 22.789062 28.8125 22.808594 28.722656 22.832031 28.625 C 22.851562 28.527344 22.863281 28.429688 22.878906 28.332031 C 22.894531 28.234375 22.898438 28.136719 22.914062 28.039062 C 22.921875 27.941406 22.929688 27.84375 22.929688 27.746094 C 22.929688 27.648438 22.933594 27.554688 22.929688 27.457031 L 22.929688 26.925781 C 22.476562 26.578125 22.042969 26.222656 21.652344 25.824219 Z M 21.652344 25.824219 " fill-opacity="1" fill-rule="nonzero"/></g><g clip-path="url(#cf48415c91)"><path fill="#48cfae" d="M 11.65625 12.132812 C 11.460938 12.589844 11.191406 13 10.84375 13.355469 L 10.925781 13.550781 L 10.925781 13.574219 L 13.683594 13.574219 L 13.683594 6.378906 C 13.683594 6.273438 13.691406 6.160156 13.707031 6.058594 C 13.71875 5.953125 13.734375 5.839844 13.761719 5.738281 C 13.78125 5.632812 13.808594 5.527344 13.84375 5.421875 C 13.878906 5.320312 13.914062 5.222656 13.957031 5.125 C 13.996094 5.027344 14.046875 4.929688 14.09375 4.832031 C 14.144531 4.734375 14.207031 4.644531 14.261719 4.558594 C 14.324219 4.46875 14.386719 4.386719 14.457031 4.300781 C 14.527344 4.21875 14.597656 4.140625 14.671875 4.066406 C 14.75 3.988281 14.832031 3.917969 14.917969 3.847656 C 15 3.78125 15.085938 3.71875 15.175781 3.660156 C 15.265625 3.605469 15.355469 3.550781 15.453125 3.5 C 15.550781 3.453125 15.648438 3.402344 15.746094 3.363281 C 15.84375 3.320312 15.949219 3.285156 16.054688 3.257812 C 16.15625 3.230469 16.261719 3.203125 16.367188 3.179688 C 16.472656 3.160156 16.574219 3.144531 16.6875 3.132812 C 16.792969 3.117188 16.902344 3.117188 17.007812 3.117188 C 17.113281 3.117188 17.222656 3.125 17.328125 3.132812 C 17.433594 3.140625 17.542969 3.160156 17.648438 3.179688 C 17.753906 3.203125 17.855469 3.230469 17.960938 3.257812 C 18.066406 3.285156 18.164062 3.328125 18.269531 3.363281 C 18.367188 3.402344 18.460938 3.445312 18.558594 3.5 C 18.65625 3.550781 18.75 3.605469 18.839844 3.660156 C 18.929688 3.71875 19.011719 3.785156 19.097656 3.847656 C 19.179688 3.917969 19.265625 3.988281 19.339844 4.066406 C 19.417969 4.140625 19.492188 4.21875 19.554688 4.300781 C 19.625 4.386719 19.6875 4.46875 19.75 4.558594 C 19.8125 4.648438 19.871094 4.742188 19.917969 4.832031 C 19.96875 4.921875 20.015625 5.019531 20.058594 5.125 C 20.101562 5.222656 20.140625 5.324219 20.167969 5.421875 C 20.203125 5.527344 20.230469 5.632812 20.253906 5.738281 C 20.273438 5.839844 20.292969 5.945312 20.308594 6.058594 C 20.324219 6.160156 20.328125 6.273438 20.328125 6.378906 L 20.328125 13.578125 L 21.570312 13.578125 C 21.769531 13.484375 21.988281 13.40625 22.203125 13.355469 C 22.425781 13.308594 22.648438 13.28125 22.871094 13.28125 C 23.09375 13.28125 23.316406 13.308594 23.539062 13.355469 C 23.761719 13.40625 23.972656 13.484375 24.175781 13.578125 L 27.523438 13.578125 C 27.636719 13.578125 27.742188 13.585938 27.851562 13.59375 C 27.964844 13.609375 28.066406 13.621094 28.171875 13.644531 C 28.277344 13.664062 28.382812 13.691406 28.484375 13.71875 C 28.589844 13.753906 28.695312 13.789062 28.792969 13.832031 C 28.890625 13.871094 28.996094 13.921875 29.085938 13.96875 C 29.183594 14.019531 29.273438 14.074219 29.363281 14.136719 C 29.453125 14.199219 29.546875 14.261719 29.628906 14.332031 C 29.710938 14.402344 29.796875 14.472656 29.871094 14.546875 C 29.949219 14.625 30.027344 14.707031 30.089844 14.792969 C 30.15625 14.875 30.21875 14.964844 30.285156 15.058594 C 30.347656 15.148438 30.402344 15.238281 30.449219 15.335938 C 30.5 15.433594 30.546875 15.53125 30.589844 15.628906 C 30.632812 15.726562 30.667969 15.828125 30.703125 15.933594 C 30.734375 16.039062 30.757812 16.144531 30.777344 16.246094 C 30.796875 16.351562 30.8125 16.464844 30.828125 16.566406 C 30.839844 16.679688 30.839844 16.785156 30.839844 16.894531 C 30.839844 17.097656 30.820312 17.300781 30.785156 17.496094 C 31.726562 17.683594 32.511719 18.050781 32.972656 18.875 C 33 18.914062 33.015625 18.964844 33.042969 19.011719 L 33.132812 18.75 C 33.167969 18.636719 33.203125 18.527344 33.230469 18.414062 C 33.257812 18.300781 33.285156 18.191406 33.304688 18.074219 C 33.328125 17.960938 33.347656 17.84375 33.367188 17.730469 C 33.390625 17.621094 33.398438 17.5 33.410156 17.382812 C 33.417969 17.265625 33.425781 17.152344 33.433594 17.035156 C 33.433594 16.917969 33.433594 16.804688 33.433594 16.6875 C 33.425781 16.566406 33.417969 16.457031 33.410156 16.339844 C 33.402344 16.21875 33.382812 16.109375 33.367188 15.988281 C 33.347656 15.871094 33.328125 15.761719 33.304688 15.648438 C 33.277344 15.539062 33.25 15.417969 33.222656 15.308594 C 33.195312 15.195312 33.160156 15.085938 33.117188 14.972656 C 33.082031 14.863281 33.042969 14.757812 32.992188 14.644531 C 32.949219 14.542969 32.902344 14.429688 32.855469 14.324219 C 32.804688 14.222656 32.75 14.117188 32.695312 14.019531 C 32.636719 13.921875 32.574219 13.816406 32.511719 13.71875 C 32.449219 13.621094 32.386719 13.523438 32.316406 13.433594 C 32.246094 13.335938 32.179688 13.246094 32.101562 13.15625 C 32.023438 13.066406 31.949219 12.972656 31.871094 12.890625 C 31.792969 12.808594 31.710938 12.722656 31.628906 12.640625 C 31.542969 12.554688 31.460938 12.480469 31.371094 12.402344 C 31.28125 12.328125 31.1875 12.257812 31.097656 12.1875 C 31.007812 12.117188 30.910156 12.046875 30.8125 11.984375 C 30.714844 11.921875 30.617188 11.859375 30.519531 11.796875 C 30.421875 11.742188 30.316406 11.679688 30.214844 11.628906 C 30.109375 11.574219 30.003906 11.523438 29.898438 11.476562 C 29.796875 11.425781 29.683594 11.386719 29.574219 11.34375 C 29.460938 11.300781 29.355469 11.265625 29.246094 11.234375 C 29.132812 11.199219 29.023438 11.171875 28.910156 11.140625 C 28.800781 11.113281 28.679688 11.09375 28.570312 11.074219 C 28.457031 11.050781 28.339844 11.039062 28.222656 11.023438 C 28.101562 11.007812 27.992188 11.003906 27.875 10.996094 C 27.753906 10.988281 27.644531 10.980469 27.523438 10.988281 L 22.914062 10.988281 L 22.914062 6.378906 C 22.914062 6.183594 22.898438 5.996094 22.878906 5.804688 C 22.859375 5.617188 22.824219 5.429688 22.789062 5.242188 C 22.746094 5.054688 22.699219 4.875 22.640625 4.683594 C 22.585938 4.503906 22.515625 4.324219 22.441406 4.148438 C 22.363281 3.972656 22.28125 3.800781 22.1875 3.632812 C 22.097656 3.464844 21.996094 3.300781 21.890625 3.144531 C 21.777344 2.984375 21.667969 2.832031 21.542969 2.6875 C 21.417969 2.539062 21.289062 2.398438 21.152344 2.261719 C 21.011719 2.128906 20.871094 1.996094 20.71875 1.878906 C 20.574219 1.757812 20.414062 1.640625 20.253906 1.535156 C 20.09375 1.433594 19.925781 1.335938 19.757812 1.242188 C 19.589844 1.152344 19.417969 1.078125 19.234375 1 C 19.0625 0.929688 18.878906 0.859375 18.691406 0.8125 C 18.511719 0.757812 18.324219 0.707031 18.136719 0.671875 C 17.949219 0.636719 17.757812 0.609375 17.5625 0.589844 C 17.398438 0.5625 17.210938 0.554688 17.015625 0.554688 C 16.820312 0.554688 16.632812 0.5625 16.441406 0.582031 C 16.253906 0.601562 16.058594 0.632812 15.871094 0.664062 C 15.683594 0.699219 15.496094 0.75 15.3125 0.804688 C 15.132812 0.859375 14.953125 0.921875 14.769531 0.992188 C 14.597656 1.0625 14.421875 1.148438 14.25 1.238281 C 14.082031 1.328125 13.914062 1.425781 13.753906 1.53125 C 13.59375 1.632812 13.441406 1.746094 13.289062 1.871094 C 13.140625 1.988281 12.996094 2.121094 12.855469 2.253906 C 12.714844 2.386719 12.589844 2.53125 12.464844 2.679688 C 12.339844 2.824219 12.230469 2.976562 12.117188 3.140625 C 12.003906 3.300781 11.910156 3.460938 11.816406 3.625 C 11.726562 3.792969 11.644531 3.96875 11.566406 4.140625 C 11.492188 4.316406 11.425781 4.496094 11.363281 4.679688 C 11.308594 4.859375 11.261719 5.046875 11.21875 5.234375 C 11.175781 5.421875 11.148438 5.613281 11.128906 5.800781 C 11.105469 5.988281 11.09375 6.183594 11.09375 6.371094 L 11.09375 6.480469 C 11.796875 8.183594 12.195312 10.835938 11.65625 12.132812 Z M 11.65625 12.132812 " fill-opacity="1" fill-rule="nonzero"/></g><path fill="#007bc2" d="M 2.449219 9.101562 C 2.558594 9.949219 3.429688 11.476562 4.460938 12.640625 C 4.886719 13.121094 5.519531 13.734375 6.121094 13.957031 C 6.390625 14.046875 6.664062 14.109375 6.949219 14.136719 C 7.234375 14.164062 7.511719 14.15625 7.796875 14.117188 L 8.097656 14.800781 C 8.117188 14.847656 8.148438 14.898438 8.183594 14.9375 C 8.214844 14.980469 8.25 15.023438 8.300781 15.058594 C 8.34375 15.089844 8.390625 15.121094 8.4375 15.140625 C 8.488281 15.160156 8.542969 15.175781 8.601562 15.1875 L 8.628906 15.285156 L 8.941406 15.148438 C 8.96875 15.238281 9.003906 15.3125 9.039062 15.390625 C 9.246094 15.863281 9.527344 16.304688 9.867188 16.6875 C 10.167969 17.015625 10.5 17.304688 10.871094 17.550781 C 11.238281 17.792969 11.636719 17.988281 12.0625 18.136719 C 13.28125 18.574219 14.304688 18.429688 15.210938 18.296875 C 16.757812 18.074219 17.78125 17.925781 19.1875 20.894531 C 19.996094 22.605469 21.066406 24.160156 22.195312 25.28125 C 23.539062 26.613281 24.960938 27.324219 26.320312 27.359375 C 28.332031 27.398438 30.09375 26.011719 31.570312 23.242188 C 32.574219 21.355469 32.820312 20.085938 32.351562 19.257812 C 31.773438 18.226562 30.347656 18.148438 28.6875 18.050781 C 27.425781 17.980469 26 17.898438 24.871094 17.371094 C 24.890625 17.328125 24.914062 17.285156 24.933594 17.25 C 24.953125 17.210938 24.96875 17.167969 24.988281 17.125 C 25.003906 17.082031 25.023438 17.042969 25.039062 17 C 25.050781 16.957031 25.066406 16.917969 25.082031 16.867188 C 25.09375 16.824219 25.101562 16.777344 25.113281 16.734375 C 25.121094 16.695312 25.128906 16.644531 25.136719 16.601562 C 25.144531 16.554688 25.148438 16.511719 25.148438 16.464844 C 25.15625 16.414062 25.15625 16.375 25.15625 16.324219 C 25.15625 16.277344 25.15625 16.234375 25.15625 16.183594 C 25.15625 16.136719 25.148438 16.09375 25.148438 16.046875 C 25.144531 15.996094 25.136719 15.957031 25.128906 15.914062 C 25.121094 15.871094 25.113281 15.824219 25.101562 15.78125 C 25.09375 15.738281 25.082031 15.691406 25.066406 15.648438 C 25.050781 15.605469 25.039062 15.566406 25.023438 15.515625 C 25.011719 15.476562 24.988281 15.433594 24.976562 15.390625 C 24.953125 15.347656 24.941406 15.308594 24.917969 15.265625 C 24.898438 15.222656 24.878906 15.183594 24.855469 15.148438 C 24.835938 15.105469 24.808594 15.070312 24.789062 15.027344 C 24.757812 14.992188 24.738281 14.953125 24.710938 14.917969 C 24.683594 14.882812 24.65625 14.847656 24.628906 14.8125 C 24.597656 14.777344 24.566406 14.742188 24.535156 14.714844 C 24.503906 14.679688 24.472656 14.652344 24.4375 14.617188 C 24.40625 14.589844 24.371094 14.554688 24.335938 14.527344 C 24.300781 14.5 24.265625 14.472656 24.222656 14.445312 C 24.1875 14.414062 24.148438 14.394531 24.113281 14.367188 C 24.070312 14.347656 24.035156 14.316406 23.992188 14.296875 C 23.953125 14.277344 23.910156 14.253906 23.867188 14.234375 C 23.828125 14.214844 23.785156 14.199219 23.742188 14.179688 C 23.699219 14.164062 23.660156 14.144531 23.617188 14.128906 C 23.574219 14.117188 23.527344 14.101562 23.484375 14.09375 C 23.441406 14.082031 23.394531 14.074219 23.351562 14.066406 C 23.3125 14.0625 23.261719 14.054688 23.21875 14.046875 C 23.179688 14.039062 23.128906 14.03125 23.082031 14.03125 C 23.03125 14.03125 22.992188 14.027344 22.941406 14.027344 C 22.894531 14.027344 22.851562 14.027344 22.800781 14.027344 C 22.753906 14.027344 22.710938 14.03125 22.664062 14.039062 C 22.613281 14.046875 22.574219 14.054688 22.53125 14.0625 C 22.488281 14.066406 22.441406 14.074219 22.398438 14.089844 C 22.355469 14.101562 22.308594 14.109375 22.265625 14.125 C 22.222656 14.136719 22.183594 14.152344 22.132812 14.164062 C 22.09375 14.179688 22.050781 14.199219 22.007812 14.214844 C 21.964844 14.234375 21.925781 14.25 21.882812 14.269531 C 21.839844 14.289062 21.800781 14.3125 21.765625 14.339844 C 21.730469 14.367188 21.6875 14.386719 21.644531 14.414062 C 21.609375 14.445312 21.570312 14.472656 21.535156 14.5 C 21.5 14.527344 21.464844 14.554688 21.429688 14.582031 C 21.394531 14.609375 21.359375 14.644531 21.332031 14.671875 C 21.296875 14.707031 21.269531 14.734375 21.242188 14.769531 C 21.214844 14.804688 21.179688 14.839844 21.152344 14.875 C 21.125 14.910156 21.097656 14.945312 21.066406 14.988281 C 21.039062 15.023438 21.019531 15.0625 20.992188 15.097656 C 20.96875 15.140625 20.941406 15.175781 20.921875 15.21875 C 20.902344 15.257812 20.878906 15.300781 20.859375 15.34375 C 20.839844 15.382812 20.824219 15.425781 20.804688 15.46875 C 20.789062 15.507812 20.777344 15.550781 20.761719 15.601562 C 20.746094 15.640625 20.734375 15.683594 20.726562 15.730469 C 20.710938 15.773438 20.707031 15.824219 20.699219 15.863281 C 20.691406 15.90625 20.683594 15.957031 20.679688 15.996094 C 20.671875 16.046875 20.671875 16.085938 20.664062 16.136719 C 20.664062 16.183594 20.65625 16.226562 20.65625 16.277344 C 20.65625 16.324219 20.65625 16.367188 20.664062 16.414062 C 20.664062 16.464844 20.671875 16.503906 20.679688 16.554688 C 20.683594 16.601562 20.691406 16.644531 20.699219 16.6875 C 20.707031 16.726562 20.71875 16.777344 20.726562 16.820312 C 20.734375 16.859375 20.746094 16.910156 20.761719 16.953125 C 20.777344 16.992188 20.789062 17.035156 20.804688 17.082031 C 20.816406 17.125 20.839844 17.167969 20.859375 17.210938 C 20.878906 17.25 20.902344 17.292969 20.921875 17.335938 C 20.941406 17.375 20.964844 17.410156 20.992188 17.453125 C 21.011719 17.496094 21.039062 17.53125 21.066406 17.5625 C 21.097656 17.597656 21.125 17.640625 21.152344 17.675781 C 21.179688 17.710938 21.207031 17.746094 21.242188 17.78125 C 21.269531 17.816406 21.304688 17.851562 21.339844 17.878906 C 21.375 17.914062 21.402344 17.941406 21.4375 17.96875 C 21.472656 17.996094 21.507812 18.023438 21.542969 18.050781 C 21.578125 18.078125 21.609375 18.109375 21.652344 18.136719 C 21.6875 18.164062 21.730469 18.183594 21.773438 18.210938 C 21.8125 18.234375 21.847656 18.261719 21.890625 18.28125 C 21.933594 18.300781 21.972656 18.324219 22.015625 18.335938 C 22.058594 18.359375 22.097656 18.371094 22.140625 18.386719 C 22.183594 18.398438 22.222656 18.414062 22.273438 18.429688 C 22.316406 18.441406 22.363281 18.457031 22.40625 18.460938 C 22.445312 18.476562 22.496094 18.484375 22.539062 18.492188 C 22.578125 18.496094 22.628906 18.503906 22.671875 18.511719 C 22.71875 18.519531 22.761719 18.519531 22.808594 18.527344 C 22.859375 18.527344 22.898438 18.527344 22.949219 18.527344 C 22.996094 18.527344 23.039062 18.527344 23.089844 18.519531 C 23.136719 18.519531 23.179688 18.511719 23.226562 18.503906 C 23.269531 18.496094 23.316406 18.492188 23.359375 18.484375 C 23.402344 18.476562 23.449219 18.460938 23.492188 18.457031 C 23.535156 18.441406 23.582031 18.433594 23.625 18.421875 C 23.667969 18.40625 23.707031 18.394531 23.75 18.371094 C 23.792969 18.359375 23.832031 18.335938 23.875 18.316406 C 23.917969 18.296875 23.957031 18.273438 24 18.253906 C 24.042969 18.234375 24.078125 18.210938 24.117188 18.183594 C 24.160156 18.164062 24.195312 18.136719 24.230469 18.109375 C 25.59375 18.832031 27.21875 18.921875 28.660156 19.007812 C 29.976562 19.082031 31.214844 19.152344 31.539062 19.714844 C 31.730469 20.058594 31.753906 20.867188 30.742188 22.773438 C 29.453125 25.207031 27.976562 26.425781 26.367188 26.382812 C 23.777344 26.328125 21.367188 23.164062 20.09375 20.476562 C 18.378906 16.867188 16.714844 17.105469 15.105469 17.335938 C 14.277344 17.453125 13.417969 17.578125 12.421875 17.222656 C 10.855469 16.660156 10.160156 15.59375 9.851562 14.75 L 9.921875 14.722656 C 9.964844 14.707031 10 14.679688 10.035156 14.660156 C 10.070312 14.640625 10.105469 14.605469 10.132812 14.574219 C 10.160156 14.546875 10.1875 14.511719 10.214844 14.472656 C 10.238281 14.4375 10.257812 14.394531 10.269531 14.351562 C 10.285156 14.3125 10.300781 14.269531 10.304688 14.226562 C 10.3125 14.1875 10.320312 14.144531 10.320312 14.09375 C 10.320312 14.054688 10.3125 14.011719 10.304688 13.96875 C 10.300781 13.929688 10.285156 13.886719 10.265625 13.84375 L 9.964844 13.160156 C 10.1875 12.980469 10.382812 12.777344 10.558594 12.554688 C 10.730469 12.332031 10.878906 12.082031 10.988281 11.824219 C 11.558594 10.445312 10.820312 6.921875 9.921875 5.835938 C 9.511719 5.347656 8.890625 5.066406 8.113281 5.019531 C 8.0625 4.929688 8 4.84375 7.925781 4.769531 C 7.847656 4.691406 7.769531 4.628906 7.679688 4.574219 C 7.589844 4.519531 7.492188 4.476562 7.386719 4.449219 C 7.28125 4.421875 7.179688 4.40625 7.074219 4.40625 C 7.027344 4.40625 6.976562 4.40625 6.929688 4.414062 C 6.878906 4.421875 6.832031 4.425781 6.789062 4.441406 C 6.738281 4.457031 6.699219 4.46875 6.648438 4.484375 C 6.609375 4.496094 6.558594 4.519531 6.515625 4.546875 C 6.476562 4.566406 6.433594 4.59375 6.390625 4.621094 C 6.351562 4.648438 6.316406 4.679688 6.28125 4.710938 C 6.246094 4.746094 6.210938 4.78125 6.183594 4.816406 C 6.15625 4.851562 6.121094 4.894531 6.097656 4.9375 C 6.070312 4.976562 6.050781 5.019531 6.03125 5.0625 C 6.007812 5.101562 5.988281 5.152344 5.972656 5.195312 C 5.960938 5.242188 5.945312 5.285156 5.933594 5.332031 C 5.925781 5.382812 5.917969 5.429688 5.910156 5.480469 C 5.902344 5.527344 5.902344 5.578125 5.910156 5.625 C 5.910156 5.675781 5.917969 5.722656 5.925781 5.773438 C 5.933594 5.820312 5.945312 5.871094 5.960938 5.910156 C 5.972656 5.960938 5.988281 6 6.007812 6.042969 C 6.058594 6.148438 6.113281 6.246094 6.191406 6.335938 C 6.265625 6.425781 6.351562 6.496094 6.449219 6.558594 C 6.542969 6.621094 6.648438 6.671875 6.761719 6.699219 C 6.871094 6.726562 6.984375 6.746094 7.101562 6.738281 C 7.21875 6.738281 7.332031 6.71875 7.445312 6.683594 C 7.554688 6.648438 7.660156 6.59375 7.75 6.53125 C 7.847656 6.460938 7.929688 6.382812 8 6.292969 C 8.070312 6.203125 8.125 6.097656 8.167969 5.996094 C 8.605469 6.035156 8.933594 6.183594 9.148438 6.425781 L 9.171875 6.453125 C 9.492188 6.835938 9.839844 7.828125 10.046875 8.90625 C 10.25 9.984375 10.269531 11.023438 10.089844 11.457031 C 9.761719 12.25 8.863281 12.777344 8.585938 12.933594 C 8.277344 13.035156 7.28125 13.335938 6.480469 13.035156 C 6.042969 12.875 5.304688 12.164062 4.644531 11.265625 C 3.980469 10.367188 3.5 9.457031 3.4375 8.953125 C 3.394531 8.621094 3.507812 8.273438 3.785156 7.902344 C 3.828125 7.925781 3.878906 7.9375 3.925781 7.945312 C 3.972656 7.957031 4.015625 7.964844 4.066406 7.972656 C 4.113281 7.980469 4.164062 7.980469 4.210938 7.988281 C 4.261719 7.988281 4.308594 7.988281 4.359375 7.980469 C 4.40625 7.972656 4.457031 7.964844 4.496094 7.953125 C 4.546875 7.9375 4.585938 7.925781 4.636719 7.910156 C 4.679688 7.894531 4.726562 7.875 4.769531 7.855469 C 4.808594 7.832031 4.851562 7.804688 4.894531 7.777344 C 4.9375 7.75 4.96875 7.722656 5.003906 7.6875 C 5.039062 7.652344 5.074219 7.625 5.109375 7.582031 C 5.144531 7.546875 5.171875 7.507812 5.199219 7.472656 C 5.226562 7.429688 5.25 7.386719 5.277344 7.347656 C 5.296875 7.304688 5.320312 7.261719 5.332031 7.214844 C 5.347656 7.171875 5.359375 7.121094 5.375 7.074219 C 5.386719 7.027344 5.394531 6.984375 5.394531 6.933594 C 5.402344 6.886719 5.402344 6.835938 5.402344 6.789062 C 5.402344 6.738281 5.394531 6.691406 5.386719 6.640625 C 5.382812 6.59375 5.375 6.542969 5.359375 6.503906 C 5.347656 6.453125 5.332031 6.414062 5.3125 6.363281 C 5.292969 6.320312 5.269531 6.273438 5.25 6.230469 C 5.226562 6.191406 5.199219 6.148438 5.171875 6.113281 C 5.144531 6.070312 5.117188 6.035156 5.082031 6 C 5.046875 5.964844 5.011719 5.933594 4.976562 5.902344 C 4.941406 5.875 4.902344 5.847656 4.859375 5.820312 C 4.816406 5.792969 4.777344 5.773438 4.734375 5.75 C 4.691406 5.730469 4.644531 5.707031 4.601562 5.695312 C 4.550781 5.679688 4.511719 5.667969 4.460938 5.660156 C 4.414062 5.652344 4.363281 5.644531 4.324219 5.640625 C 4.273438 5.632812 4.226562 5.632812 4.175781 5.640625 C 4.128906 5.640625 4.078125 5.644531 4.03125 5.652344 C 3.980469 5.660156 3.933594 5.675781 3.890625 5.6875 C 3.84375 5.703125 3.800781 5.714844 3.757812 5.738281 C 3.6875 5.765625 3.625 5.800781 3.5625 5.839844 C 3.5 5.882812 3.445312 5.933594 3.394531 5.980469 C 3.339844 6.035156 3.300781 6.09375 3.257812 6.148438 C 3.214844 6.203125 3.179688 6.273438 3.152344 6.34375 C 3.125 6.414062 3.097656 6.480469 3.082031 6.550781 C 3.070312 6.621094 3.054688 6.699219 3.054688 6.769531 C 3.054688 6.84375 3.054688 6.914062 3.070312 6.992188 C 3.082031 7.058594 3.097656 7.136719 3.125 7.207031 C 2.582031 7.828125 2.367188 8.472656 2.449219 9.101562 Z M 2.449219 9.101562 " fill-opacity="1" fill-rule="nonzero"/></svg>